<svg id="Layer_1" data-name="Layer 1" xmlns="http://www.w3.org/2000/svg" viewBox="0 0 823.92 141.24"><title>LOGO DÉLICES</title><path d="M68.16,232.23H116.4q16.3,0,24.86,2.23A44.76,44.76,0,0,1,161,245.24a50.3,50.3,0,0,1,12.48,18.95q4.28,11.21,4.28,27.65,0,14.45-4,24.9a51.05,51.05,0,0,1-14,20.66q-6.87,6-18.55,9.34-8.73,2.47-23.35,2.47H68.16ZM94.55,252V329.5h19.71q11.05,0,16-1.11a25.44,25.44,0,0,0,10.65-4.87q4.23-3.43,6.91-11.29t2.68-21.43q0-13.56-2.68-20.83a24.22,24.22,0,0,0-19.7-16.83Q122.55,252,106.41,252Z" transform="translate(-68.16 -210.05)"/><path d="M209.23,349.21v-117h96.9V252H235.62V278h65.61v19.71H235.62V329.5h73v19.71Zm28.84-123.69,24-15.47h21.06l-24.51,15.47Z" transform="translate(-68.16 -210.05)"/><polygon points="272.68 139.17 272.68 23.14 299.07 23.14 299.07 119.46 364.68 119.46 364.68 139.17 272.68 139.17"/><rect x="391.82" y="22.18" width="26.39" height="116.99"/><path d="M604.25,306.2l25.59,7.26q-5.9,19.17-19.57,28.46t-34.72,9.29q-26,0-42.79-15.92T516,291.76q0-29.2,16.85-45.37t44.3-16.16q24,0,39,12.69,8.91,7.5,13.37,21.55l-26.11,5.58a24.57,24.57,0,0,0-9.68-14.36c-4.9-3.51-10.87-5.27-17.87-5.27q-14.55,0-23.59,9.34T543.18,290q0,22.19,8.92,31.6T575.28,331a28.22,28.22,0,0,0,18.09-6q7.59-6,10.88-18.83" transform="translate(-68.16 -210.05)"/><polygon points="593.45 139.17 593.45 22.18 690.35 22.18 690.35 41.97 619.83 41.97 619.83 67.91 685.44 67.91 685.44 87.62 619.83 87.62 619.83 119.46 692.85 119.46 692.85 139.17 593.45 139.17"/><path d="M785.82,311.15l25.68-2.23q2.31,11.56,9.4,17T840,331.34q12.74,0,19.21-4.83t6.46-11.29a10,10,0,0,0-2.72-7.06q-2.72-2.91-9.49-5.07-4.63-1.44-21.13-5.11-21.23-4.71-29.78-11.57-12-9.65-12-23.54a27.91,27.91,0,0,1,5.66-16.72q5.67-7.78,16.31-11.85t25.72-4.07q24.6,0,37,9.66t13.06,25.77l-26.38,1q-1.69-9-7.27-13T838,249.78q-11.49,0-18,4.23a8.29,8.29,0,0,0-4.2,7.26c0,2.77,1.32,5.14,3.93,7.11q5,3.75,24.24,7.82t28.49,8.42a35.66,35.66,0,0,1,14.45,11.88q5.21,7.54,5.21,18.64A31.88,31.88,0,0,1,885.84,334q-6.24,8.79-17.65,13t-28.43,4.27q-24.78,0-38.07-10.25t-15.87-29.89" transform="translate(-68.16 -210.05)"/></svg>